<svg xmlns="http://www.w3.org/2000/svg" viewBox="0 0 512 512"><path d="M387.879 213.521a179.592 179.592 0 00-46.545-36.603 177.594 177.594 0 00-30-12.983c-17.427-5.7-36.025-8.783-55.33-8.783h-.002c-30.889 0-59.968 7.894-85.332 21.765a179.647 179.647 0 00-46.545 36.602c-28.903 31.721-46.549 73.866-46.549 120.058C77.576 431.959 157.617 512 256 512h.002c98.382 0 178.423-80.041 178.423-178.424-.001-46.19-17.645-88.336-46.546-120.055z" fill="#ffb655"/><path d="M170.668 176.916v-45.039c0-47.051 38.281-85.332 85.332-85.332 47.053 0 85.333 38.281 85.333 85.332v45.039a179.554 179.554 0 0146.545 36.603v-81.642C387.879 59.161 328.718 0 256 0c-72.716 0-131.877 59.161-131.877 131.877v81.641a179.614 179.614 0 0146.545-36.602z" fill="#c3c3c7"/><path d="M256 512h.002V155.152H256c-30.889 0-59.968 7.894-85.332 21.765a179.614 179.614 0 00-46.545 36.602c-28.902 31.721-46.547 73.868-46.547 120.058C77.576 431.959 157.617 512 256 512z" fill="#ee8700"/><path fill="#e69629" d="M256 155.152h.002z"/><g fill="#f1cb30"><path d="M256.002 155.152c19.305 0 37.904 3.083 55.33 8.783-17.427-5.701-36.027-8.783-55.33-8.783zM321.645 167.664z"/></g><path d="M124.123 131.879v81.641a179.605 179.605 0 0146.545-36.602v-45.039c0-47.053 38.281-85.333 85.332-85.333V0c-72.716 0-131.877 59.161-131.877 131.879z" fill="#a9a8ae"/></svg>